<svg xmlns="http://www.w3.org/2000/svg" viewBox="0 0 40 26"><path fill-rule="evenodd" clip-rule="evenodd" fill="#007AC5" d="M0 0h40v26H0z"/><g fill="#FFF"><path d="M4.99 13.55h2.64l-1.3-3.16M25.16 10.69v1.46h4.23v1.61h-4.23v1.61h4.74l2.17-2.35-2.12-2.32h-4.79zm5.23 1.96l.32.36-.32.35v-.71z"/><path d="M40 17.13l-.82-.83-3.24-3.3 3.17-3.29.89-.92v-.77h-4.63l-.3.31-1.72 1.82-1.6-1.8-.3-.34H18.32l-.26.6-1.46 3.37-1.56-3.38-.27-.58h-4.71v3.73L8.7 8.62l-.26-.6H4.3l-.26.61-3.42 7.98L.01 18h4.24l.25-.62.46-1.13h2.67l.46 1.13.27.62h5.57V15.43l.89 1.98.27.59h2.94l.27-.59.89-1.98V18h12.14l.3-.32 1.7-1.82 1.62 1.81.3.33H40v-.87zM22.11 17h-1.94v-6.25L17.37 17h-1.64l-2.8-6.25V17h-3.9l-.71-1.76H4.3L3.59 17H1.53l3.42-7.98h2.83l3.28 7.53V9.02h3.07l2.5 5.42 2.35-5.42h3.13V17zm13.56 0l-2.35-2.62L30.88 17h-7.59V9.02H31l2.32 2.62 2.47-2.62h2.59l-3.85 3.99L38.47 17h-2.8z"/></g></svg>