<svg xmlns="http://www.w3.org/2000/svg" viewBox="0 0 40 26"><path fill="#4D4D4D" d="M0 0v26h40V0H0z"/><path fill="#FFF" d="M16.21 7.99c.52 0 .95.1 1.48.36v1.33c-.5-.46-.93-.65-1.5-.65-1.12 0-2.01.88-2.01 1.99 0 1.17.86 2 2.06 2 .54 0 .97-.18 1.45-.63v1.33c-.55.24-.99.34-1.5.34-1.83 0-3.24-1.32-3.24-3.02-.02-1.7 1.44-3.05 3.26-3.05zm-5.67.04c.67 0 1.29.22 1.81.64l-.63.77c-.31-.33-.61-.47-.97-.47-.52 0-.89.28-.89.64 0 .31.21.48.93.73 1.36.47 1.77.89 1.77 1.81 0 1.12-.87 1.9-2.12 1.9-.91 0-1.58-.34-2.13-1.1l.77-.7c.28.5.74.77 1.31.77.53 0 .93-.35.93-.82 0-.24-.12-.45-.36-.6-.12-.07-.36-.17-.83-.33-1.13-.38-1.51-.78-1.51-1.58 0-.95.83-1.66 1.92-1.66zm13.7.1h1.31l1.64 3.89 1.66-3.89h1.3l-2.66 5.94h-.65l-2.6-5.94zm-23.2.01H2.8c1.94 0 3.3 1.19 3.3 2.9 0 .85-.41 1.68-1.12 2.22-.59.46-1.26.67-2.19.67H1.04V8.14zm5.61 0h1.2v5.79h-1.2V8.14zm24.04 0h3.4v.98h-2.2v1.28h2.12v.98h-2.12v1.56h2.2v.98h-3.4V8.14zm4.2 0h1.78c1.38 0 2.18.63 2.18 1.71 0 .89-.5 1.47-1.4 1.64l1.94 2.44H37.9l-1.66-2.33h-.16v2.33h-1.2V8.14h.01zm1.19.91v1.75h.35c.77 0 1.17-.31 1.17-.89 0-.56-.41-.86-1.15-.86h-.37zm-33.84.07v3.83h.32c.77 0 1.26-.14 1.64-.46.41-.35.66-.9.66-1.46 0-.55-.25-1.09-.66-1.44-.4-.34-.87-.47-1.64-.47h-.32z"/><path fill="#F47216" d="M21.34 7.95c1.81 0 3.27 1.38 3.27 3.08 0 1.7-1.46 3.08-3.27 3.08s-3.27-1.38-3.27-3.08c0-1.7 1.47-3.08 3.27-3.08zM40 15.1c-1.34.94-11.34 7.66-28.65 10.9H40V15.1z"/></svg>