<svg xmlns="http://www.w3.org/2000/svg" viewBox="0 0 40 26"><path fill="#086DB9" d="M7.9 1C5.76 1 4.03 2.74 4.03 4.88v9.97c.9.49 2.11.97 3.36.93 2.5-.08 2.21-1.98 2.21-3.07V9.16H13s.01 3.27.02 4.63c.01 1.36-.81 2.98-3.82 3.23-1.85.16-3.81-.13-5.17-.4V25h5.92c2.14 0 3.87-1.73 3.87-3.87V1H7.9z"/><path fill="#DD0F3A" d="M18.98 1c-2.14 0-3.87 1.73-3.87 3.87v5.38c.84-.75 2.3-1.32 4.85-1.32 2.85 0 3.84.49 3.84.49v1.69c-.72-.63-6.45-2.27-6.45 1.87 0 3.84 4.72 2.87 6.45 1.9.03.86 0 1.67 0 1.67s-1.62.51-3.84.51c-2.49-.01-3.98-.55-4.85-1.32V25h5.92c2.14 0 3.87-1.73 3.87-3.87V1h-5.92z"/><path fill="#5AAA34" d="M29.9 1c-2.14 0-3.87 1.73-3.87 3.87v4.15h5.53s2.65.02 2.69 2.02c.03 1.64-1.81 1.83-1.81 1.83s2.28.14 2.28 1.98c0 1.83-2.14 2.11-2.14 2.11l-6.52.02-.03 8.02h5.92c2.14 0 3.87-1.73 3.87-3.87V1H29.9z"/><path fill="#5AAA34" d="M30.27 13.47h-2.32v2.12h2.32v-.01c.58 0 1.06-.47 1.06-1.06 0-.57-.48-1.05-1.06-1.05zM31.07 11.32c0-.52-.42-.94-.94-.96v-.01h-2.18v1.94h2.18v-.02c.53-.01.94-.43.94-.95z"/></svg>