<svg xmlns="http://www.w3.org/2000/svg" viewBox="0 0 40 26"><path d="M14.07 24.87v-1.54c0-.58-.37-.97-.97-.98-.31-.01-.64.09-.86.44-.17-.27-.44-.44-.81-.44-.26 0-.52.08-.72.37v-.3h-.53v2.46h.54V23.5c0-.43.24-.65.6-.65.35 0 .53.23.53.65v1.37h.54V23.5c0-.43.25-.65.6-.65.37 0 .54.23.54.65v1.37h.54zm3.01-1.23v-1.23h-.53v.3c-.17-.22-.43-.36-.78-.36-.69 0-1.23.54-1.23 1.29s.54 1.29 1.23 1.29c.35 0 .61-.14.78-.36v.3h.53v-1.23zm-1.99 0c0-.43.28-.79.75-.79.44 0 .74.34.74.79s-.3.79-.74.79c-.46-.01-.75-.36-.75-.79zm13.44-1.3c.19 0 .37.03.53.1.16.07.3.16.42.27.12.12.21.25.28.41.07.16.1.33.1.51s-.03.36-.1.51c-.07.16-.16.29-.28.41-.12.12-.26.21-.42.27-.16.07-.34.1-.53.1s-.37-.03-.53-.1c-.16-.07-.3-.16-.42-.27-.12-.12-.21-.25-.28-.41-.07-.16-.1-.33-.1-.51s.03-.36.1-.51c.07-.16.16-.29.28-.41.12-.12.26-.21.42-.27.16-.06.34-.1.53-.1zm0 .51c-.11 0-.21.02-.31.06-.09.04-.18.09-.24.16-.07.07-.12.15-.16.25-.04.1-.06.2-.06.32s.02.22.06.32c.04.1.09.18.16.25s.15.12.24.16c.09.04.2.06.31.06s.21-.02.31-.06c.09-.04.18-.09.25-.16s.12-.15.16-.25c.04-.1.06-.2.06-.32s-.02-.22-.06-.32c-.04-.1-.09-.18-.16-.25s-.15-.12-.25-.16c-.1-.04-.2-.06-.31-.06zm-8.54.79c-.01-.77-.48-1.29-1.17-1.29-.72 0-1.22.52-1.22 1.29 0 .78.52 1.29 1.26 1.29.37 0 .71-.09 1.01-.34l-.26-.4c-.21.16-.47.26-.71.26-.34 0-.66-.16-.74-.6h1.83v-.21zm-1.83-.22c.06-.35.27-.6.65-.6.34 0 .57.22.62.6h-1.27zm4.09-.38c-.15-.09-.45-.21-.77-.21-.29 0-.47.11-.47.29 0 .16.19.21.42.24l.25.04c.53.08.86.3.86.74 0 .47-.41.8-1.12.8-.4 0-.77-.1-1.06-.32l.25-.42c.18.14.45.26.82.26.37 0 .56-.11.56-.3 0-.14-.14-.22-.43-.26l-.25-.04c-.55-.08-.85-.32-.85-.73 0-.49.4-.79 1.02-.79.39 0 .75.09 1 .26l-.23.44zm2.57-.14h-.87v1.11c0 .25.09.41.35.41.14 0 .31-.05.47-.14l.15.46c-.17.12-.44.19-.67.19-.63 0-.85-.34-.85-.91V22.9h-.5v-.49h.5v-.75h.54v.75h.87v.49zm1.85-.55c.11 0 .26.02.38.07l-.16.5c-.11-.05-.23-.06-.33-.06-.35 0-.52.23-.52.63v1.38h-.53v-2.46h.53v.3c.12-.22.32-.36.63-.36zm3.7 2.16c.03 0 .07.01.1.02s.06.03.08.05c.02.02.04.05.05.08.01.03.02.06.02.1 0 .03-.01.07-.02.09-.01.03-.03.06-.05.08-.02.02-.05.04-.08.05-.03.01-.06.02-.1.02-.04 0-.07-.01-.1-.02s-.06-.03-.08-.05c-.02-.02-.04-.05-.05-.08-.01-.03-.02-.06-.02-.09s.01-.07.02-.1.03-.06.05-.08c.02-.02.05-.04.08-.05.03-.01.07-.02.1-.02zm0 .43c.03 0 .05-.01.07-.01.02-.01.04-.02.06-.04.02-.02.03-.04.04-.06.01-.02.01-.05.01-.07 0-.03 0-.05-.01-.07-.01-.02-.02-.04-.04-.06-.02-.02-.04-.03-.06-.04-.02-.01-.05-.01-.07-.01-.03 0-.05 0-.08.01-.02.01-.04.02-.06.04-.02.02-.03.04-.04.06-.01.02-.01.05-.01.07 0 .03 0 .05.01.07.01.02.02.04.04.06.02.02.04.03.06.04.03.01.05.01.08.01zm.02-.3c.03 0 .05.01.07.02.02.01.02.03.02.05 0 .02-.01.03-.02.05-.01.01-.03.02-.05.02l.07.09h-.06l-.07-.09h-.02v.09h-.05v-.23h.11zm-.06.04v.06h.06c.01 0 .02 0 .03-.01.01 0 .01-.01.01-.02s0-.02-.01-.02-.02-.01-.03-.01h-.06z"/><path fill="#7673C0" d="M15.94 3.65h8.11v14.58h-8.11z"/><path fill="#EB001B" d="M16.46 10.93c0-2.96 1.38-5.59 3.54-7.29-1.58-1.24-3.57-1.98-5.73-1.98C9.15 1.66 5 5.81 5 10.93c0 5.12 4.15 9.27 9.27 9.27 2.16 0 4.15-.74 5.73-1.98-2.16-1.69-3.54-4.33-3.54-7.29z"/><path fill="#00A1DF" d="M35 10.93c0 5.12-4.15 9.27-9.27 9.27-2.16 0-4.15-.74-5.73-1.98 2.16-1.7 3.54-4.33 3.54-7.29S22.16 5.34 20 3.65c1.58-1.24 3.57-1.98 5.73-1.98C30.85 1.66 35 5.81 35 10.93z"/></svg>