<svg xmlns="http://www.w3.org/2000/svg" viewBox="0 0 40 26"><path d="M10.46 24.75V23.2c0-.58-.37-.97-.97-.98-.31-.01-.64.09-.87.44-.17-.27-.44-.44-.81-.44-.26 0-.52.08-.72.37v-.3h-.54v2.46h.54v-1.36c0-.43.24-.65.6-.65s.54.23.54.65v1.37h.54V23.4c0-.43.25-.65.6-.65.37 0 .54.23.54.65v1.37h.55zm8-2.46h-.88v-.75h-.54v.75h-.5v.49h.5v1.12c0 .57.22.91.85.91.23 0 .5-.07.67-.19l-.15-.46c-.16.09-.33.14-.47.14-.27 0-.36-.16-.36-.41v-1.11h.88v-.49zm4.57-.06c-.31 0-.51.14-.65.36v-.3h-.53v2.46h.54v-1.38c0-.41.18-.63.53-.63.11 0 .22.02.33.06l.16-.5c-.12-.05-.27-.07-.38-.07zm-6.91.25c-.26-.17-.61-.26-1-.26-.62 0-1.02.3-1.02.79 0 .4.3.65.85.73l.25.04c.29.04.43.12.43.26 0 .19-.2.3-.56.3-.37 0-.64-.12-.82-.26l-.25.42c.29.22.66.32 1.07.32.71 0 1.12-.33 1.12-.8 0-.43-.32-.66-.86-.74l-.25-.04c-.23-.03-.42-.08-.42-.24 0-.18.18-.29.47-.29.31 0 .62.12.77.21l.22-.44zm14.35-.25c-.31 0-.51.14-.65.36v-.3h-.53v2.46h.54v-1.38c0-.41.18-.63.53-.63.11 0 .22.02.33.06l.16-.5c-.12-.05-.27-.07-.38-.07zm-6.9 1.29c0 .75.52 1.29 1.31 1.29.37 0 .62-.08.89-.29l-.26-.43c-.2.14-.41.22-.64.22-.43-.01-.74-.31-.74-.79 0-.47.31-.78.74-.79.23 0 .44.08.64.22l.26-.43c-.27-.21-.51-.29-.89-.29-.79 0-1.31.54-1.31 1.29zm5.01 0v-1.23h-.54v.3c-.17-.22-.43-.36-.78-.36-.69 0-1.23.54-1.23 1.29s.54 1.29 1.23 1.29c.35 0 .61-.14.78-.36v.3h.54v-1.23zm-1.99 0c0-.43.28-.79.75-.79.44 0 .74.34.74.79s-.3.79-.74.79c-.47 0-.75-.36-.75-.79zm-6.46-1.29c-.72 0-1.23.53-1.23 1.29 0 .78.53 1.29 1.26 1.29.37 0 .71-.09 1.01-.35l-.26-.4c-.21.16-.47.26-.72.26-.35 0-.66-.16-.74-.6h1.83c.01-.07.01-.13.01-.21 0-.76-.47-1.28-1.16-1.28zm-.01.48c.35 0 .57.22.62.6h-1.28c.06-.36.28-.6.66-.6zm13.43.81V21.3h-.54v1.29c-.17-.22-.43-.36-.78-.36-.69 0-1.23.54-1.23 1.29s.54 1.29 1.23 1.29c.35 0 .61-.14.78-.36v.3h.54v-1.23zm-1.99 0c0-.43.28-.79.75-.79.44 0 .74.34.74.79s-.3.79-.74.79c-.47 0-.75-.36-.75-.79zm-18.09 0v-1.23h-.54v.3c-.17-.22-.43-.36-.78-.36-.69 0-1.23.54-1.23 1.29s.54 1.29 1.23 1.29c.35 0 .61-.14.78-.36v.3h.54v-1.23zm-1.99 0c0-.43.28-.79.75-.79.44 0 .74.34.74.79s-.3.79-.74.79c-.46 0-.75-.36-.75-.79zm22.97.87c.03 0 .07.01.1.02s.06.03.08.05c.02.02.04.05.05.08.01.03.02.06.02.1 0 .03-.01.07-.02.09-.01.03-.03.06-.05.08-.02.02-.05.04-.08.05-.03.01-.06.02-.1.02-.04 0-.07-.01-.1-.02s-.06-.03-.08-.05c-.02-.02-.04-.05-.05-.08-.01-.03-.02-.06-.02-.09s.01-.07.02-.1.03-.06.05-.08c.02-.02.05-.04.08-.05.03-.01.06-.02.1-.02zm0 .44c.03 0 .05-.01.07-.01.02-.01.04-.02.06-.04.02-.02.03-.04.04-.06.01-.02.01-.05.01-.07s0-.05-.01-.07c-.01-.02-.02-.04-.04-.06-.02-.02-.04-.03-.06-.04-.02-.01-.05-.01-.07-.01-.03 0-.05 0-.08.01-.02.01-.04.02-.06.04-.02.02-.03.04-.04.06-.01.02-.01.05-.01.07s0 .05.01.07c.01.02.02.04.04.06.02.02.04.03.06.04.03 0 .05.01.08.01zm.01-.31c.03 0 .05.01.07.02.02.01.02.03.02.05 0 .02-.01.03-.02.05-.01.01-.03.02-.05.02l.07.09h-.05l-.07-.09h-.02v.09h-.05v-.23h.1zm-.05.05v.06h.06c.01 0 .02 0 .03-.01.01 0 .01-.01.01-.02s0-.02-.01-.02-.02-.01-.03-.01h-.06z"/><path fill="#FF5F00" d="M15.94 3.53h8.11v14.58h-8.11z"/><path fill="#EB001B" d="M16.46 10.82c0-2.96 1.38-5.59 3.54-7.29-1.58-1.24-3.57-1.98-5.73-1.98C9.15 1.55 5 5.7 5 10.82c0 5.12 4.15 9.27 9.27 9.27 2.16 0 4.15-.74 5.73-1.98-2.16-1.7-3.54-4.33-3.54-7.29z"/><path fill="#F79E1B" d="M35 10.82c0 5.12-4.15 9.27-9.27 9.27-2.16 0-4.15-.74-5.73-1.98 2.16-1.7 3.54-4.33 3.54-7.29S22.16 5.23 20 3.53c1.58-1.24 3.57-1.98 5.73-1.98 5.12 0 9.27 4.15 9.27 9.27z"/></svg>