<svg xmlns="http://www.w3.org/2000/svg" viewBox="0 0 200 110"><path fill="#FFF" d="M0 0h200v110H0z"/><g fill="none" stroke="#D9E4ED" stroke-linecap="round" stroke-miterlimit="10"><path d="M24.27 10.45l8.77-2.48 11.68 3 10.62-3 11.47 3 10.62-3 10.84 3 11.04-3 11.26 3 11.05-3 11.68 3 10.19-3 11.26 3 11.26-3 10.41 3M22.42 14.97l10.62-3 11.68 3 10.62-3 11.47 3 10.62-3 10.84 3 11.04-3 11.26 3 11.05-3 11.68 3 10.19-3 11.26 3 11.26-3 9.41 2.72M24.27 18.45l8.77-2.48 11.68 3 10.62-3 11.47 3 10.62-3 10.84 3 11.04-3 11.26 3 11.05-3 11.68 3 10.19-3 11.26 3 11.26-3 10.41 3M23.91 22.55l9.13-2.58 11.68 3 10.62-3 11.47 3 10.62-3 10.84 3 11.04-3 11.26 3 11.05-3 11.68 3 10.19-3 11.26 3 11.26-3 10.41 3"/></g><g fill="none" stroke="#D9E4ED" stroke-linecap="round" stroke-miterlimit="10"><path d="M22.42 26.97l10.62-3 11.68 3 10.62-3 11.47 3 10.62-3 10.84 3 11.04-3 11.26 3 11.05-3 11.68 3 10.19-3 11.26 3 11.26-3 9.41 2.72M23.47 30.68l9.57-2.71 11.68 3 10.62-3 11.47 3 10.62-3 10.84 3 11.04-3 11.26 3 11.05-3 11.68 3 10.19-3 11.26 3 11.26-3 8.81 2.54M24.27 34.45l8.77-2.48 11.68 3 10.62-3 11.47 3 10.62-3 10.84 3 11.04-3 11.26 3 11.05-3 11.68 3 10.19-3 11.26 3 11.26-3 10.41 3M22.42 38.97l10.62-3 11.68 3 10.62-3 11.47 3 10.62-3 10.84 3 11.04-3 11.26 3 11.05-3 11.68 3 10.19-3 11.26 3 11.26-3 10.41 3"/></g><g fill="none" stroke="#D9E4ED" stroke-linecap="round" stroke-miterlimit="10"><path d="M22.42 42.97l10.62-3 11.68 3 10.62-3 11.47 3 10.62-3 10.84 3 11.04-3 11.26 3 11.05-3 11.68 3 10.19-3 11.26 3 11.26-3 8.48 2.45M23.91 46.55l9.13-2.58 11.68 3 10.62-3 11.47 3 10.62-3 10.84 3 11.04-3 11.26 3 11.05-3 11.68 3 10.19-3 11.26 3 11.26-3 10.41 3M23.47 50.68l9.57-2.71 11.68 3 10.62-3 11.47 3 10.62-3 10.84 3 11.04-3 11.26 3 11.05-3 11.68 3 10.19-3 11.26 3 11.26-3 10.41 3M22.42 54.97l10.62-3 11.68 3 10.62-3 11.47 3 10.62-3 10.84 3 11.04-3 11.26 3 11.05-3 11.68 3 10.19-3 11.26 3 11.26-3 8.79 2.54"/></g><g fill="none" stroke="#D9E4ED" stroke-linecap="round" stroke-miterlimit="10"><path d="M24.27 58.45l8.77-2.48 11.68 3 10.62-3 11.47 3 10.62-3 10.84 3 11.04-3 11.26 3 11.05-3 11.68 3 10.19-3 11.26 3 11.26-3 9.53 2.75M24.27 62.45l8.77-2.48 11.68 3 10.62-3 11.47 3 10.62-3 10.84 3 11.04-3 11.26 3 11.05-3 11.68 3 10.19-3 11.26 3 11.26-3 10.41 3M22.42 66.97l10.62-3 11.68 3 10.62-3 11.47 3 10.62-3 10.84 3 11.04-3 11.26 3 11.05-3 11.68 3 10.19-3 11.26 3 11.26-3 8.79 2.54M22.42 70.97l10.62-3 11.68 3 10.62-3 11.47 3 10.62-3 10.84 3 11.04-3 11.26 3 11.05-3 11.68 3 10.19-3 11.26 3 11.26-3 8.79 2.54"/></g><g fill="none" stroke="#D9E4ED" stroke-linecap="round" stroke-miterlimit="10"><path d="M24.27 74.45l8.77-2.48 11.68 3 10.62-3 11.47 3 10.62-3 10.84 3 11.04-3 11.26 3 11.05-3 11.68 3 10.19-3 11.26 3 11.26-3 10.41 3M22.42 78.97l10.62-3 11.68 3 10.62-3 11.47 3 10.62-3 10.84 3 11.04-3 11.26 3 11.05-3 11.68 3 10.19-3 11.26 3 11.26-3 9.53 2.75M22.42 82.97l10.62-3 11.68 3 10.62-3 11.47 3 10.62-3 10.84 3 11.04-3 11.26 3 11.05-3 11.68 3 10.19-3 11.26 3 11.26-3 8.79 2.54M24.27 86.45l8.77-2.48 11.68 3 10.62-3 11.47 3 10.62-3 10.84 3 11.04-3 11.26 3 11.05-3 11.68 3 10.19-3 11.26 3 11.26-3 10.41 3"/></g><g fill="none" stroke="#D9E4ED" stroke-linecap="round" stroke-miterlimit="10"><path d="M22.42 90.97l10.62-3 11.68 3 10.62-3 11.47 3 10.62-3 10.84 3 11.04-3 11.26 3 11.05-3 11.68 3 10.19-3 11.26 3 11.26-3 10.41 3M22.42 94.97l10.62-3 11.68 3 10.62-3 11.47 3 10.62-3 10.84 3 11.04-3 11.26 3 11.05-3 11.68 3 10.19-3 11.26 3 11.26-3 8.26 2.39M23.84 98.57l9.2-2.6 11.68 3 10.62-3 11.47 3 10.62-3 10.84 3 11.04-3 11.26 3 11.05-3 11.68 3 10.19-3 11.26 3 11.26-3 10.41 3"/></g><path d="M33.11 26.97v-7.34h4.65v.57h-4.03v2.72h3.95v.57h-3.95v3.48h-.62zM39.02 24.31c0-1.55 1-2.78 2.55-2.78 1.57 0 2.56 1.23 2.56 2.78 0 1.55-.99 2.79-2.56 2.79-1.55.01-2.55-1.24-2.55-2.79zm4.5 0c0-1.18-.69-2.27-1.95-2.27-1.23 0-1.94 1.09-1.94 2.27 0 1.19.7 2.28 1.94 2.28 1.25 0 1.95-1.09 1.95-2.28zM45.88 26.97v-5.31h.57v.91c.45-.59 1.06-1.02 1.79-1.02v.63c-.1-.02-.18-.02-.29-.02-.54 0-1.27.48-1.51.95v3.87h-.56zM55.97 26.97v-3.72c0-.75-.32-1.21-1.07-1.21-.57 0-1.22.42-1.52.9v4.03h-.58v-3.72c0-.75-.31-1.21-1.07-1.21-.56 0-1.2.43-1.52.91v4.02h-.57v-5.31h.57v.8c.22-.34.95-.94 1.72-.94.82 0 1.27.48 1.4 1 .3-.5 1.01-1 1.76-1 .98 0 1.45.55 1.45 1.62v3.83h-.57zM65.64 26.97v-.85c-.37.55-1.06.98-1.85.98-1.41 0-2.38-1.08-2.38-2.78 0-1.68.97-2.79 2.38-2.79.76 0 1.42.39 1.85.99v-2.88h.58v7.34h-.58zm0-1.33v-2.63c-.31-.52-1-.97-1.75-.97-1.18 0-1.86.99-1.86 2.28s.68 2.27 1.86 2.27c.75 0 1.44-.44 1.75-.95zM71.65 26.97v-.63c-.47.52-1.07.76-1.8.76-.91 0-1.86-.63-1.86-1.77 0-1.16.94-1.76 1.86-1.76.74 0 1.34.24 1.8.76v-1.08c0-.79-.64-1.22-1.43-1.22-.66 0-1.18.23-1.66.78l-.32-.4c.55-.59 1.17-.89 2.05-.89 1.08 0 1.94.52 1.94 1.71v3.74h-.58zm0-1.04v-1.17c-.37-.48-.97-.74-1.61-.74-.88 0-1.45.56-1.45 1.32 0 .75.57 1.31 1.45 1.31.65.01 1.24-.24 1.61-.72zM74.39 25.95v-3.78h-.88v-.51h.88v-1.45h.58v1.45h1.08v.51h-1.08v3.7c0 .43.18.73.55.73.25 0 .47-.12.59-.25l.22.44c-.21.2-.46.33-.9.33-.7-.01-1.04-.44-1.04-1.17zM80.96 26.97v-.63c-.47.52-1.07.76-1.8.76-.91 0-1.86-.63-1.86-1.77 0-1.16.94-1.76 1.86-1.76.74 0 1.34.24 1.8.76v-1.08c0-.79-.64-1.22-1.43-1.22-.66 0-1.18.23-1.66.78l-.32-.4c.55-.59 1.17-.89 2.05-.89 1.08 0 1.94.52 1.94 1.71v3.74h-.58zm0-1.04v-1.17c-.37-.48-.97-.74-1.61-.74-.88 0-1.45.56-1.45 1.32 0 .75.57 1.31 1.45 1.31.64.01 1.24-.24 1.61-.72zM91.27 26.97l-1.49-4.54-1.5 4.54h-.55L86 21.66h.62l1.41 4.51 1.5-4.51h.5l1.5 4.51 1.41-4.51h.62l-1.73 5.31h-.56zM94.74 20.38c0-.24.21-.43.44-.43.24 0 .44.19.44.43s-.2.44-.44.44c-.23 0-.44-.19-.44-.44zm.16 6.59v-5.31h.57v5.31h-.57zM97.53 26.97v-7.34h.57v7.34h-.57zM100.15 26.97v-7.34h.57v7.34h-.57zM105.91 26.97v-7.34h.57v2.88c.43-.6 1.1-.99 1.85-.99 1.42 0 2.38 1.11 2.38 2.79 0 1.71-.97 2.78-2.38 2.78-.79 0-1.47-.43-1.85-.98v.85h-.57zm2.32-.38c1.19 0 1.86-.98 1.86-2.27s-.67-2.28-1.86-2.28c-.74 0-1.44.46-1.75.97v2.63c.31.51 1.01.95 1.75.95zM112.15 24.31c0-1.54 1.09-2.78 2.56-2.78 1.62 0 2.51 1.29 2.51 2.82v.15h-4.45c.06 1.16.83 2.11 2.08 2.11.67 0 1.29-.25 1.74-.74l.3.37c-.53.55-1.2.86-2.08.86-1.54.01-2.66-1.15-2.66-2.79zm2.56-2.29c-1.25 0-1.88 1.1-1.93 2.02h3.86c-.01-.89-.6-2.02-1.93-2.02zM121.64 26.27l.34-.43c.34.43.97.78 1.72.78.89 0 1.42-.46 1.42-1.08 0-1.45-3.36-.64-3.36-2.54 0-.81.69-1.47 1.89-1.47.91 0 1.52.35 1.9.78l-.32.41c-.31-.42-.88-.7-1.58-.7-.83 0-1.33.42-1.33.97 0 1.33 3.36.52 3.36 2.56 0 .86-.66 1.56-1.99 1.56-.87 0-1.53-.26-2.05-.84zM127.12 24.31c0-1.54 1.09-2.78 2.56-2.78 1.62 0 2.51 1.29 2.51 2.82v.15h-4.44c.05 1.16.82 2.11 2.08 2.11.67 0 1.29-.25 1.74-.74l.3.37c-.53.55-1.2.86-2.08.86-1.56.01-2.67-1.15-2.67-2.79zm2.55-2.29c-1.25 0-1.88 1.1-1.92 2.02h3.86c-.02-.89-.61-2.02-1.94-2.02zM137.52 26.97v-3.6c0-1.02-.52-1.33-1.29-1.33-.68 0-1.39.43-1.73.91v4.02h-.57v-5.31h.57v.8c.38-.46 1.14-.94 1.91-.94 1.08 0 1.67.53 1.67 1.73v3.72h-.56zM140.26 25.95v-3.78h-.88v-.51h.88v-1.45h.58v1.45h1.08v.51h-1.08v3.7c0 .43.18.73.55.73.25 0 .47-.12.59-.25l.22.44c-.21.2-.46.33-.9.33-.7-.01-1.04-.44-1.04-1.17zM146.27 24.31c0-1.55 1-2.78 2.55-2.78 1.57 0 2.56 1.23 2.56 2.78 0 1.55-.99 2.79-2.56 2.79-1.55.01-2.55-1.24-2.55-2.79zm4.49 0c0-1.18-.69-2.27-1.95-2.27-1.23 0-1.94 1.09-1.94 2.27 0 1.19.71 2.28 1.94 2.28 1.26 0 1.95-1.09 1.95-2.28zM154.56 26.97l-2.24-5.31h.64l1.94 4.64 1.91-4.64h.65l-2.24 5.31h-.66zM158.39 24.31c0-1.54 1.09-2.78 2.56-2.78 1.62 0 2.51 1.29 2.51 2.82v.15h-4.45c.06 1.16.83 2.11 2.08 2.11.67 0 1.29-.25 1.74-.74l.3.37c-.53.55-1.2.86-2.08.86-1.55.01-2.66-1.15-2.66-2.79zm2.55-2.29c-1.25 0-1.88 1.1-1.93 2.02h3.86c0-.89-.6-2.02-1.93-2.02zM165.21 26.97v-5.31h.57v.91c.45-.59 1.06-1.02 1.79-1.02v.63c-.1-.02-.18-.02-.29-.02-.54 0-1.26.48-1.51.95v3.87h-.56zM33.03 39.14l.41-.47c.47.55 1.24 1.07 2.29 1.07 1.51 0 1.94-.84 1.94-1.46 0-2.16-4.4-1.03-4.4-3.6 0-1.2 1.08-1.96 2.41-1.96 1.1 0 1.91.38 2.49 1.03l-.42.46c-.53-.64-1.28-.92-2.1-.92-.98 0-1.72.56-1.72 1.35 0 1.88 4.4.85 4.4 3.59 0 .95-.63 2.08-2.61 2.08-1.22 0-2.13-.49-2.69-1.17zM39.69 39.14l.41-.47c.47.55 1.24 1.07 2.29 1.07 1.51 0 1.94-.84 1.94-1.46 0-2.16-4.4-1.03-4.4-3.6 0-1.2 1.08-1.96 2.41-1.96 1.1 0 1.91.38 2.49 1.03l-.42.46c-.53-.64-1.28-.92-2.1-.92-.98 0-1.72.56-1.72 1.35 0 1.88 4.4.85 4.4 3.59 0 .95-.63 2.08-2.61 2.08-1.21 0-2.13-.49-2.69-1.17zM46.77 40.17v-7.34h.63v6.77h3.55v.57h-4.18zM52 37.78v-.53h4.64v.53H52zM58.95 37.51c0-1.54 1.09-2.78 2.56-2.78 1.62 0 2.51 1.29 2.51 2.82v.15h-4.44c.06 1.16.83 2.11 2.08 2.11.67 0 1.29-.25 1.74-.74l.3.37c-.53.55-1.2.86-2.08.86-1.55.01-2.67-1.15-2.67-2.79zm2.56-2.29c-1.25 0-1.88 1.1-1.93 2.02h3.86c-.01-.89-.6-2.02-1.93-2.02zM69.36 40.17v-3.6c0-1.02-.52-1.33-1.29-1.33-.68 0-1.39.43-1.73.91v4.02h-.57v-5.31h.57v.8c.38-.46 1.14-.94 1.91-.94 1.08 0 1.67.53 1.67 1.73v3.72h-.56zM71.68 37.51c0-1.55 1.02-2.78 2.59-2.78.92 0 1.45.36 1.88.9l-.4.35c-.39-.53-.87-.74-1.45-.74-1.24 0-2 .99-2 2.27s.76 2.28 2 2.28c.58 0 1.07-.22 1.45-.75l.4.35c-.43.55-.96.91-1.88.91-1.57.01-2.59-1.24-2.59-2.79zM77.7 40.17v-5.31h.57v.91c.45-.59 1.06-1.02 1.79-1.02v.63c-.1-.02-.18-.02-.29-.02-.54 0-1.27.48-1.51.95v3.87h-.56zM81.21 41.73c.12.06.33.09.46.09.35 0 .59-.14.8-.65l.42-.95-2.24-5.36h.64l1.94 4.64 1.91-4.64h.65l-2.75 6.48c-.29.67-.74.99-1.36.99-.18 0-.42-.03-.56-.08l.09-.52zM87.6 39.32v2.88h-.57v-7.34h.57v.84c.37-.54 1.06-.97 1.85-.97 1.42 0 2.38 1.08 2.38 2.78 0 1.69-.96 2.79-2.38 2.79-.75.01-1.42-.38-1.85-.98zm3.61-1.81c0-1.29-.67-2.27-1.86-2.27-.74 0-1.44.44-1.75.95v2.63c.31.51 1.01.97 1.75.97 1.19 0 1.86-.99 1.86-2.28zM93.65 39.15v-3.78h-.88v-.51h.88v-1.45h.58v1.45h1.08v.51h-1.08v3.7c0 .43.18.73.55.73.25 0 .47-.12.59-.25l.22.44c-.21.2-.46.33-.9.33-.7-.01-1.04-.44-1.04-1.17zM96.53 37.51c0-1.54 1.09-2.78 2.56-2.78 1.62 0 2.51 1.29 2.51 2.82v.15h-4.45c.06 1.16.83 2.11 2.08 2.11.67 0 1.29-.25 1.74-.74l.3.37c-.53.55-1.2.86-2.08.86-1.55.01-2.66-1.15-2.66-2.79zm2.55-2.29c-1.25 0-1.88 1.1-1.93 2.02h3.86c0-.89-.6-2.02-1.93-2.02zM107.27 40.17v-.85c-.37.55-1.06.98-1.85.98-1.41 0-2.38-1.08-2.38-2.78 0-1.68.97-2.79 2.38-2.79.76 0 1.42.39 1.85.99v-2.88h.58v7.34h-.58zm0-1.33v-2.63c-.31-.52-1-.97-1.75-.97-1.18 0-1.86.99-1.86 2.28s.68 2.27 1.86 2.27c.74 0 1.44-.44 1.75-.95zM112.72 37.51c0-1.55 1.02-2.78 2.59-2.78.92 0 1.45.36 1.88.9l-.4.35c-.38-.53-.87-.74-1.45-.74-1.24 0-2 .99-2 2.27s.76 2.28 2 2.28c.58 0 1.07-.22 1.45-.75l.4.35c-.43.55-.96.91-1.88.91-1.57.01-2.59-1.24-2.59-2.79zM118.43 37.51c0-1.55 1-2.78 2.55-2.78 1.57 0 2.56 1.23 2.56 2.78 0 1.55-.99 2.79-2.56 2.79-1.55.01-2.55-1.24-2.55-2.79zm4.5 0c0-1.18-.69-2.27-1.95-2.27-1.23 0-1.94 1.09-1.94 2.27 0 1.19.7 2.28 1.94 2.28 1.26 0 1.95-1.09 1.95-2.28zM128.88 40.17v-3.6c0-1.02-.52-1.33-1.29-1.33-.68 0-1.39.43-1.73.91v4.02h-.57v-5.31h.57v.8c.38-.46 1.14-.94 1.91-.94 1.08 0 1.67.53 1.67 1.73v3.72h-.56zM135.1 40.17v-3.6c0-1.02-.52-1.33-1.29-1.33-.68 0-1.39.43-1.73.91v4.02h-.57v-5.31h.57v.8c.38-.46 1.14-.94 1.91-.94 1.08 0 1.67.53 1.67 1.73v3.72h-.56zM137.42 37.51c0-1.54 1.09-2.78 2.56-2.78 1.62 0 2.51 1.29 2.51 2.82v.15h-4.44c.05 1.16.82 2.11 2.08 2.11.67 0 1.29-.25 1.74-.74l.3.37c-.53.55-1.2.86-2.08.86-1.56.01-2.67-1.15-2.67-2.79zm2.55-2.29c-1.25 0-1.88 1.1-1.92 2.02h3.86c-.02-.89-.61-2.02-1.94-2.02zM143.93 37.51c0-1.55 1.02-2.78 2.58-2.78.92 0 1.45.36 1.88.9l-.4.35c-.38-.53-.87-.74-1.45-.74-1.24 0-2 .99-2 2.27s.76 2.28 2 2.28c.58 0 1.07-.22 1.45-.75l.4.35c-.43.55-.96.91-1.88.91-1.56.01-2.58-1.24-2.58-2.79zM150.05 39.15v-3.78h-.88v-.51h.88v-1.45h.58v1.45h1.08v.51h-1.08v3.7c0 .43.18.73.55.73.25 0 .47-.12.59-.25l.22.44c-.21.2-.46.33-.9.33-.69-.01-1.04-.44-1.04-1.17zM153.09 33.58c0-.24.21-.43.44-.43.24 0 .44.19.44.43s-.2.44-.44.44c-.23 0-.44-.19-.44-.44zm.15 6.59v-5.31h.57v5.31h-.57zM155.56 37.51c0-1.55 1-2.78 2.55-2.78 1.57 0 2.56 1.23 2.56 2.78 0 1.55-.99 2.79-2.56 2.79-1.54.01-2.55-1.24-2.55-2.79zm4.5 0c0-1.18-.69-2.27-1.95-2.27-1.23 0-1.94 1.09-1.94 2.27 0 1.19.7 2.28 1.94 2.28 1.26 0 1.95-1.09 1.95-2.28zM166.02 40.17v-3.6c0-1.02-.52-1.33-1.29-1.33-.68 0-1.39.43-1.73.91v4.02h-.57v-5.31h.57v.8c.38-.46 1.14-.94 1.91-.94 1.08 0 1.67.53 1.67 1.73v3.72h-.56z"/><g fill="#1E7DC8"><path d="M71.27 69.97V59.33l-2.44 2.49-1.78-1.87 4.62-4.64h2.73v14.68h-3.13zM77.43 69.97v-2.44c6.01-4.44 7.77-5.96 7.77-7.77 0-1.28-1.17-1.91-2.38-1.91-1.67 0-2.95.66-3.94 1.69l-1.78-2.07c1.43-1.65 3.61-2.4 5.65-2.4 3.12 0 5.61 1.76 5.61 4.69 0 2.51-2.07 4.69-5.88 7.46h5.98v2.75H77.43zM90.91 66.17c0-1.78 1.39-3.15 3.15-3.76-1.63-.57-2.9-1.63-2.9-3.45 0-2.75 2.93-3.87 5.65-3.87 2.71 0 5.65 1.12 5.65 3.87 0 1.83-1.3 2.88-2.93 3.45 1.76.62 3.17 1.98 3.17 3.76 0 2.73-2.82 4.07-5.9 4.07s-5.89-1.32-5.89-4.07zm8.63-.4c0-1.23-1.83-1.83-2.73-1.96-.92.13-2.73.73-2.73 1.96 0 1.08 1.19 1.78 2.73 1.78 1.5 0 2.73-.7 2.73-1.78zm-.27-6.33c0-1.06-1.03-1.67-2.46-1.67-1.45 0-2.49.62-2.49 1.67 0 1.1 1.58 1.61 2.49 1.74.9-.14 2.46-.64 2.46-1.74zM111.59 69.97V55.3h2.79v5.41c.84-1.08 2.02-1.63 3.28-1.63 2.71 0 4.71 2.11 4.71 5.59 0 3.54-2.02 5.57-4.71 5.57-1.28 0-2.44-.57-3.28-1.63v1.36h-2.79zm5.2-2.22c1.63 0 2.71-1.23 2.71-3.08s-1.08-3.1-2.71-3.1c-.9 0-1.94.53-2.4 1.23v3.76c.46.69 1.49 1.19 2.4 1.19zM124.75 56.53c0-.92.77-1.65 1.67-1.65.92 0 1.67.73 1.67 1.65 0 .92-.75 1.67-1.67 1.67-.9 0-1.67-.74-1.67-1.67zm.28 13.44V59.35h2.79v10.63h-2.79zM131.7 67.33v-5.54h-1.76v-2.44h1.76v-2.9h2.82v2.9h2.16v2.44h-2.16v4.8c0 .66.35 1.17.97 1.17.42 0 .81-.15.97-.31l.59 2.11c-.42.37-1.17.68-2.33.68-1.96 0-3.02-1.01-3.02-2.91z"/></g><g><path d="M45.89 88.47l1.04-1.44c.74.78 1.89 1.47 3.38 1.47 1.54 0 2.15-.75 2.15-1.46 0-2.24-6.23-.85-6.23-4.79 0-1.76 1.55-3.12 3.89-3.12 1.66 0 3.01.53 4 1.49l-1.07 1.39c-.83-.83-1.97-1.22-3.09-1.22-1.1 0-1.81.53-1.81 1.33 0 1.99 6.21.75 6.21 4.74 0 1.78-1.25 3.3-4.13 3.3-1.97.01-3.4-.68-4.34-1.69zM55.79 88.47l1.04-1.44c.74.78 1.89 1.47 3.38 1.47 1.54 0 2.14-.75 2.14-1.46 0-2.24-6.23-.85-6.23-4.79 0-1.76 1.55-3.12 3.89-3.12 1.66 0 3.01.53 4 1.49l-1.07 1.39c-.83-.83-1.97-1.22-3.09-1.22-1.1 0-1.81.53-1.81 1.33 0 1.99 6.21.75 6.21 4.74 0 1.78-1.25 3.3-4.13 3.3-1.96.01-3.38-.68-4.33-1.69zM66.38 89.97V79.3h1.87v9.03h4.71v1.65h-6.58zM79.57 89.97V79.3h7.31v1.65h-5.44v2.77h5.33v1.65h-5.33v2.96h5.44v1.65h-7.31zM94.37 89.97v-4.83c0-1.2-.61-1.6-1.55-1.6-.86 0-1.6.51-1.98 1.04v5.39h-1.68v-7.73h1.68v1.06c.51-.61 1.5-1.25 2.72-1.25 1.66 0 2.5.9 2.5 2.48v5.44h-1.69zM98.14 86.1c0-2.34 1.65-4.05 4-4.05 1.5 0 2.42.64 2.96 1.38l-1.1 1.02c-.43-.61-1.02-.91-1.78-.91-1.41 0-2.34 1.06-2.34 2.56s.93 2.58 2.34 2.58c.75 0 1.35-.32 1.78-.91l1.1 1.02c-.54.74-1.46 1.38-2.96 1.38-2.35 0-4-1.72-4-4.07zM106.98 89.97v-7.73h1.68v1.14c.58-.74 1.5-1.31 2.51-1.31v1.66c-.14-.03-.32-.05-.53-.05-.7 0-1.65.48-1.98 1.02v5.27h-1.68zM112.85 91.5c.18.08.45.13.64.13.53 0 .88-.16 1.1-.67l.38-.88-3.17-7.83h1.79l2.26 5.79 2.26-5.79h1.81l-3.73 9.12c-.53 1.31-1.46 1.73-2.66 1.74-.24 0-.7-.05-.94-.11l.26-1.5zM123.06 88.9v4.02h-1.68V82.24h1.68v1.06c.58-.77 1.47-1.25 2.48-1.25 2 0 3.42 1.5 3.42 4.05s-1.42 4.07-3.42 4.07c-.98 0-1.86-.44-2.48-1.27zm4.16-2.8c0-1.49-.85-2.56-2.18-2.56-.79 0-1.62.46-1.99 1.04v3.06c.37.56 1.2 1.04 1.99 1.04 1.33 0 2.18-1.07 2.18-2.58zM131.36 88.18v-4.47h-1.28v-1.47h1.28v-2.11h1.68v2.11h1.57v1.47h-1.57v4.05c0 .53.26.91.74.91.32 0 .62-.13.75-.27l.4 1.26c-.3.29-.8.5-1.58.5-1.3.01-1.99-.7-1.99-1.98zM136.05 86.1c0-2.24 1.63-4.05 3.92-4.05 2.32 0 3.81 1.78 3.81 4.21v.4h-5.97c.13 1.17 1.01 2.13 2.46 2.13.75 0 1.65-.3 2.19-.85l.77 1.1c-.77.74-1.9 1.12-3.14 1.12-2.31.01-4.04-1.61-4.04-4.06zm3.92-2.67c-1.44 0-2.1 1.1-2.18 2.05h4.35c-.03-.92-.65-2.05-2.17-2.05zM151.28 89.97v-1.06c-.59.77-1.49 1.25-2.48 1.25-1.99 0-3.44-1.5-3.44-4.05 0-2.5 1.44-4.07 3.44-4.07.96 0 1.86.45 2.48 1.26v-4h1.68v10.68h-1.68zm0-2.32v-3.07c-.38-.58-1.2-1.04-2-1.04-1.33 0-2.18 1.07-2.18 2.58 0 1.49.85 2.56 2.18 2.56.8 0 1.62-.45 2-1.03z"/></g><g fill="none" stroke="#87B6DB" stroke-linecap="round" stroke-miterlimit="10"><path d="M11.42 99.6l-3-6.25 3-6.88-3-6.25 3-6.75-3-6.25 3-6.37-3-6.5 3-6.63-3-6.5 3-6.87-3-6 3-6.63-3-6.62 3-6.13M15.42 99.6l-3-6.25 3-6.88-3-6.25 3-6.75-3-6.25 3-6.37-3-6.5 3-6.63-3-6.5 3-6.87-3-6 3-6.63-3-6.62 3-6.13M19.42 99.6l-3-6.25 3-6.88-3-6.25 3-6.75-3-6.25 3-6.37-3-6.5 3-6.63-3-6.5 3-6.87-3-6 3-6.63-3-6.62 3-6.13"/></g><g fill="none" stroke="#87B6DB" stroke-linecap="round" stroke-miterlimit="10"><path d="M182.42 100.97l-3-6.25 3-6.87-3-6.25 3-6.75-3-6.25 3-6.38-3-6.5 3-6.62-3-6.5 3-6.88-3-6 3-6.62-3-6.63 3-6.12M186.42 100.97l-3-6.25 3-6.87-3-6.25 3-6.75-3-6.25 3-6.38-3-6.5 3-6.62-3-6.5 3-6.88-3-6 3-6.62-3-6.63 3-6.12M190.42 100.97l-3-6.25 3-6.87-3-6.25 3-6.75-3-6.25 3-6.38-3-6.5 3-6.62-3-6.5 3-6.88-3-6 3-6.62-3-6.63 3-6.12"/></g><g fill="none" stroke="#FFE79C" stroke-linecap="round" stroke-miterlimit="10"><path d="M180.42 100.97l-3-6.25 3-6.87-3-6.25 3-6.75-3-6.25 3-6.38-3-6.5 3-6.62-3-6.5 3-6.88-3-6 3-6.62-3-6.63 3-6.12M184.42 100.97l-3-6.25 3-6.87-3-6.25 3-6.75-3-6.25 3-6.38-3-6.5 3-6.62-3-6.5 3-6.88-3-6 3-6.62-3-6.63 3-6.12M188.42 100.97l-3-6.25 3-6.87-3-6.25 3-6.75-3-6.25 3-6.38-3-6.5 3-6.62-3-6.5 3-6.88-3-6 3-6.62-3-6.63 3-6.12M192.42 100.97l-3-6.25 3-6.87-3-6.25 3-6.75-3-6.25 3-6.38-3-6.5 3-6.62-3-6.5 3-6.88-3-6 3-6.62-3-6.63 3-6.12"/></g><g fill="none" stroke="#FFE79C" stroke-linecap="round" stroke-miterlimit="10"><path d="M9.42 99.6l-3-6.25 3-6.88-3-6.25 3-6.75-3-6.25 3-6.37-3-6.5 3-6.63-3-6.5 3-6.87-3-6 3-6.63-3-6.62 3-6.13M13.42 99.6l-3-6.25 3-6.88-3-6.25 3-6.75-3-6.25 3-6.37-3-6.5 3-6.63-3-6.5 3-6.87-3-6 3-6.63-3-6.62 3-6.13M17.42 99.6l-3-6.25 3-6.88-3-6.25 3-6.75-3-6.25 3-6.37-3-6.5 3-6.63-3-6.5 3-6.87-3-6 3-6.63-3-6.62 3-6.13M21.42 99.6l-3-6.25 3-6.88-3-6.25 3-6.75-3-6.25 3-6.37-3-6.5 3-6.63-3-6.5 3-6.87-3-6 3-6.63-3-6.62 3-6.13"/></g><path fill="#87B6DB" d="M197 3v104H3V3h194m3-3H0v110h200V0z"/></svg>