<svg xmlns="http://www.w3.org/2000/svg" viewBox="0 0 200 110"><path fill="#FFF" d="M0 0h200v110H0z"/><g fill="none" stroke="#D9E4ED" stroke-linecap="round" stroke-miterlimit="10"><path d="M24.27 10.45l8.77-2.48 11.68 3 10.62-3 11.47 3 10.62-3 10.84 3 11.04-3 11.26 3 11.05-3 11.68 3 10.19-3 11.26 3 11.26-3 10.41 3M22.42 14.97l10.62-3 11.68 3 10.62-3 11.47 3 10.62-3 10.84 3 11.04-3 11.26 3 11.05-3 11.68 3 10.19-3 11.26 3 11.26-3 9.41 2.72M24.27 18.45l8.77-2.48 11.68 3 10.62-3 11.47 3 10.62-3 10.84 3 11.04-3 11.26 3 11.05-3 11.68 3 10.19-3 11.26 3 11.26-3 10.41 3M23.91 22.55l9.13-2.58 11.68 3 10.62-3 11.47 3 10.62-3 10.84 3 11.04-3 11.26 3 11.05-3 11.68 3 10.19-3 11.26 3 11.26-3 10.41 3"/></g><g fill="none" stroke="#D9E4ED" stroke-linecap="round" stroke-miterlimit="10"><path d="M22.42 26.97l10.62-3 11.68 3 10.62-3 11.47 3 10.62-3 10.84 3 11.04-3 11.26 3 11.05-3 11.68 3 10.19-3 11.26 3 11.26-3 9.41 2.72M23.47 30.68l9.57-2.71 11.68 3 10.62-3 11.47 3 10.62-3 10.84 3 11.04-3 11.26 3 11.05-3 11.68 3 10.19-3 11.26 3 11.26-3 8.81 2.54M24.27 34.45l8.77-2.48 11.68 3 10.62-3 11.47 3 10.62-3 10.84 3 11.04-3 11.26 3 11.05-3 11.68 3 10.19-3 11.26 3 11.26-3 10.41 3M22.42 38.97l10.62-3 11.68 3 10.62-3 11.47 3 10.62-3 10.84 3 11.04-3 11.26 3 11.05-3 11.68 3 10.19-3 11.26 3 11.26-3 10.41 3"/></g><g fill="none" stroke="#D9E4ED" stroke-linecap="round" stroke-miterlimit="10"><path d="M22.42 42.97l10.62-3 11.68 3 10.62-3 11.47 3 10.62-3 10.84 3 11.04-3 11.26 3 11.05-3 11.68 3 10.19-3 11.26 3 11.26-3 8.48 2.45M23.91 46.55l9.13-2.58 11.68 3 10.62-3 11.47 3 10.62-3 10.84 3 11.04-3 11.26 3 11.05-3 11.68 3 10.19-3 11.26 3 11.26-3 10.41 3M23.47 50.68l9.57-2.71 11.68 3 10.62-3 11.47 3 10.62-3 10.84 3 11.04-3 11.26 3 11.05-3 11.68 3 10.19-3 11.26 3 11.26-3 10.41 3M22.42 54.97l10.62-3 11.68 3 10.62-3 11.47 3 10.62-3 10.84 3 11.04-3 11.26 3 11.05-3 11.68 3 10.19-3 11.26 3 11.26-3 8.79 2.54"/></g><g fill="none" stroke="#D9E4ED" stroke-linecap="round" stroke-miterlimit="10"><path d="M24.27 58.45l8.77-2.48 11.68 3 10.62-3 11.47 3 10.62-3 10.84 3 11.04-3 11.26 3 11.05-3 11.68 3 10.19-3 11.26 3 11.26-3 9.53 2.75M24.27 62.45l8.77-2.48 11.68 3 10.62-3 11.47 3 10.62-3 10.84 3 11.04-3 11.26 3 11.05-3 11.68 3 10.19-3 11.26 3 11.26-3 10.41 3M22.42 66.97l10.62-3 11.68 3 10.62-3 11.47 3 10.62-3 10.84 3 11.04-3 11.26 3 11.05-3 11.68 3 10.19-3 11.26 3 11.26-3 8.79 2.54M22.42 70.97l10.62-3 11.68 3 10.62-3 11.47 3 10.62-3 10.84 3 11.04-3 11.26 3 11.05-3 11.68 3 10.19-3 11.26 3 11.26-3 8.79 2.54"/></g><g fill="none" stroke="#D9E4ED" stroke-linecap="round" stroke-miterlimit="10"><path d="M24.27 74.45l8.77-2.48 11.68 3 10.62-3 11.47 3 10.62-3 10.84 3 11.04-3 11.26 3 11.05-3 11.68 3 10.19-3 11.26 3 11.26-3 10.41 3M22.42 78.97l10.62-3 11.68 3 10.62-3 11.47 3 10.62-3 10.84 3 11.04-3 11.26 3 11.05-3 11.68 3 10.19-3 11.26 3 11.26-3 9.53 2.75M22.42 82.97l10.62-3 11.68 3 10.62-3 11.47 3 10.62-3 10.84 3 11.04-3 11.26 3 11.05-3 11.68 3 10.19-3 11.26 3 11.26-3 8.79 2.54M24.27 86.45l8.77-2.48 11.68 3 10.62-3 11.47 3 10.62-3 10.84 3 11.04-3 11.26 3 11.05-3 11.68 3 10.19-3 11.26 3 11.26-3 10.41 3"/></g><g fill="none" stroke="#D9E4ED" stroke-linecap="round" stroke-miterlimit="10"><path d="M22.42 90.97l10.62-3 11.68 3 10.62-3 11.47 3 10.62-3 10.84 3 11.04-3 11.26 3 11.05-3 11.68 3 10.19-3 11.26 3 11.26-3 10.41 3M22.42 94.97l10.62-3 11.68 3 10.62-3 11.47 3 10.62-3 10.84 3 11.04-3 11.26 3 11.05-3 11.68 3 10.19-3 11.26 3 11.26-3 8.26 2.39M23.84 98.57l9.2-2.6 11.68 3 10.62-3 11.47 3 10.62-3 10.84 3 11.04-3 11.26 3 11.05-3 11.68 3 10.19-3 11.26 3 11.26-3 10.41 3"/></g><g fill="none" stroke="#87B6DB" stroke-linecap="round" stroke-miterlimit="10"><path d="M11.42 99.6l-3-6.25 3-6.88-3-6.25 3-6.75-3-6.25 3-6.37-3-6.5 3-6.63-3-6.5 3-6.87-3-6 3-6.63-3-6.62 3-6.13M15.42 99.6l-3-6.25 3-6.88-3-6.25 3-6.75-3-6.25 3-6.37-3-6.5 3-6.63-3-6.5 3-6.87-3-6 3-6.63-3-6.62 3-6.13M19.42 99.6l-3-6.25 3-6.88-3-6.25 3-6.75-3-6.25 3-6.37-3-6.5 3-6.63-3-6.5 3-6.87-3-6 3-6.63-3-6.62 3-6.13"/></g><g fill="none" stroke="#87B6DB" stroke-linecap="round" stroke-miterlimit="10"><path d="M182.42 100.97l-3-6.25 3-6.87-3-6.25 3-6.75-3-6.25 3-6.38-3-6.5 3-6.62-3-6.5 3-6.88-3-6 3-6.62-3-6.63 3-6.12M186.42 100.97l-3-6.25 3-6.87-3-6.25 3-6.75-3-6.25 3-6.38-3-6.5 3-6.62-3-6.5 3-6.88-3-6 3-6.62-3-6.63 3-6.12M190.42 100.97l-3-6.25 3-6.87-3-6.25 3-6.75-3-6.25 3-6.38-3-6.5 3-6.62-3-6.5 3-6.88-3-6 3-6.62-3-6.63 3-6.12"/></g><g fill="none" stroke="#FFE79C" stroke-linecap="round" stroke-miterlimit="10"><path d="M180.42 100.97l-3-6.25 3-6.87-3-6.25 3-6.75-3-6.25 3-6.38-3-6.5 3-6.62-3-6.5 3-6.88-3-6 3-6.62-3-6.63 3-6.12M184.42 100.97l-3-6.25 3-6.87-3-6.25 3-6.75-3-6.25 3-6.38-3-6.5 3-6.62-3-6.5 3-6.88-3-6 3-6.62-3-6.63 3-6.12M188.42 100.97l-3-6.25 3-6.87-3-6.25 3-6.75-3-6.25 3-6.38-3-6.5 3-6.62-3-6.5 3-6.88-3-6 3-6.62-3-6.63 3-6.12M192.42 100.97l-3-6.25 3-6.87-3-6.25 3-6.75-3-6.25 3-6.38-3-6.5 3-6.62-3-6.5 3-6.88-3-6 3-6.62-3-6.63 3-6.12"/></g><g fill="none" stroke="#FFE79C" stroke-linecap="round" stroke-miterlimit="10"><path d="M9.42 99.6l-3-6.25 3-6.88-3-6.25 3-6.75-3-6.25 3-6.37-3-6.5 3-6.63-3-6.5 3-6.87-3-6 3-6.63-3-6.62 3-6.13M13.42 99.6l-3-6.25 3-6.88-3-6.25 3-6.75-3-6.25 3-6.37-3-6.5 3-6.63-3-6.5 3-6.87-3-6 3-6.63-3-6.62 3-6.13M17.42 99.6l-3-6.25 3-6.88-3-6.25 3-6.75-3-6.25 3-6.37-3-6.5 3-6.63-3-6.5 3-6.87-3-6 3-6.63-3-6.62 3-6.13M21.42 99.6l-3-6.25 3-6.88-3-6.25 3-6.75-3-6.25 3-6.37-3-6.5 3-6.63-3-6.5 3-6.87-3-6 3-6.63-3-6.62 3-6.13"/></g><g><path d="M45.04 29.68l.52-.6c.6.7 1.58 1.36 2.91 1.36 1.92 0 2.47-1.06 2.47-1.86 0-2.75-5.6-1.32-5.6-4.58 0-1.53 1.37-2.49 3.07-2.49 1.4 0 2.44.49 3.17 1.32l-.53.59c-.67-.81-1.62-1.18-2.68-1.18-1.25 0-2.19.71-2.19 1.72 0 2.4 5.6 1.08 5.6 4.57 0 1.2-.8 2.65-3.32 2.65-1.55-.01-2.71-.63-3.42-1.5zM53.62 27.61c0-1.96 1.39-3.54 3.26-3.54 2.06 0 3.19 1.64 3.19 3.59v.2h-5.66c.07 1.47 1.05 2.69 2.65 2.69.85 0 1.64-.32 2.21-.94l.38.48c-.67.7-1.53 1.09-2.65 1.09-1.97-.01-3.38-1.48-3.38-3.57zm3.25-2.91c-1.6 0-2.4 1.4-2.45 2.58h4.92c-.02-1.15-.78-2.58-2.47-2.58zM61.91 27.61c0-1.98 1.3-3.54 3.29-3.54 1.18 0 1.85.46 2.39 1.15l-.5.45c-.49-.67-1.11-.94-1.85-.94-1.58 0-2.55 1.26-2.55 2.89 0 1.62.97 2.9 2.55 2.9.74 0 1.36-.28 1.85-.95l.5.45c-.55.7-1.22 1.16-2.39 1.16-1.99-.01-3.29-1.59-3.29-3.57zM74.13 31v-.99c-.56.62-1.46 1.16-2.44 1.16-1.39 0-2.13-.64-2.13-2.17v-4.76h.73v4.59c0 1.32.66 1.68 1.64 1.68.87 0 1.75-.52 2.2-1.12v-5.15h.73V31h-.73zM77.47 31v-6.77h.73v1.16c.57-.76 1.34-1.3 2.28-1.3v.8c-.13-.03-.22-.03-.36-.03-.69 0-1.61.62-1.92 1.2V31h-.73zM81.87 27.61c0-1.96 1.39-3.54 3.26-3.54 2.06 0 3.19 1.64 3.19 3.59v.2h-5.66c.07 1.47 1.05 2.69 2.65 2.69.85 0 1.64-.32 2.21-.94l.38.48c-.67.7-1.53 1.09-2.65 1.09-1.96-.01-3.38-1.48-3.38-3.57zm3.25-2.91c-1.6 0-2.4 1.4-2.45 2.58h4.92c-.02-1.15-.77-2.58-2.47-2.58zM94.13 27.61c0-1.98 1.3-3.54 3.29-3.54 1.18 0 1.85.46 2.4 1.15l-.5.45c-.49-.67-1.11-.94-1.85-.94-1.58 0-2.55 1.26-2.55 2.89 0 1.62.97 2.9 2.55 2.9.74 0 1.36-.28 1.85-.95l.5.45c-.55.7-1.22 1.16-2.4 1.16-1.98-.01-3.29-1.59-3.29-3.57zM106.36 31v-4.61c0-1.3-.66-1.67-1.64-1.67-.87 0-1.76.55-2.2 1.16V31h-.73v-9.34h.73v3.6c.49-.59 1.46-1.19 2.44-1.19 1.37 0 2.13.64 2.13 2.17V31h-.73zM109.31 27.61c0-1.96 1.39-3.54 3.26-3.54 2.06 0 3.19 1.64 3.19 3.59v.2h-5.66c.07 1.47 1.05 2.69 2.65 2.69.85 0 1.64-.32 2.21-.94l.38.48c-.67.7-1.53 1.09-2.65 1.09-1.97-.01-3.38-1.48-3.38-3.57zm3.25-2.91c-1.6 0-2.4 1.4-2.45 2.58h4.92c-.02-1.15-.78-2.58-2.47-2.58zM117.6 27.61c0-1.98 1.3-3.54 3.29-3.54 1.18 0 1.85.46 2.4 1.15l-.5.45c-.49-.67-1.11-.94-1.85-.94-1.58 0-2.55 1.26-2.55 2.89 0 1.62.97 2.9 2.55 2.9.74 0 1.36-.28 1.85-.95l.5.45c-.55.7-1.22 1.16-2.4 1.16-1.99-.01-3.29-1.59-3.29-3.57zM129.95 31l-2.7-3.22-1.26 1.19V31h-.73v-9.34h.73v6.44l3.99-3.87h.97l-3.15 3.05 3.14 3.71h-.99zM132.27 27.61c0-1.98 1.28-3.54 3.25-3.54 2 0 3.26 1.57 3.26 3.54s-1.26 3.56-3.26 3.56c-1.98 0-3.25-1.58-3.25-3.56zm5.73 0c0-1.5-.88-2.89-2.48-2.89-1.57 0-2.46 1.39-2.46 2.89 0 1.51.9 2.9 2.46 2.9 1.6 0 2.48-1.39 2.48-2.9zM145.57 31v-.99c-.56.62-1.46 1.16-2.44 1.16-1.39 0-2.13-.64-2.13-2.17v-4.76h.73v4.59c0 1.32.66 1.68 1.64 1.68.87 0 1.75-.52 2.2-1.12v-5.15h.73V31h-.73zM149.06 29.7v-4.82h-1.12v-.64h1.12v-1.85h.74v1.85h1.37v.64h-1.37v4.71c0 .55.22.92.7.92.32 0 .6-.15.76-.32l.28.56c-.27.25-.59.42-1.15.42-.9 0-1.33-.55-1.33-1.47zM62.36 46.71v3.67h-.73v-9.34h.73v1.06c.48-.69 1.34-1.23 2.35-1.23 1.81 0 3.03 1.37 3.03 3.54 0 2.16-1.22 3.56-3.03 3.56-.95 0-1.8-.49-2.35-1.26zm4.59-2.3c0-1.64-.85-2.89-2.37-2.89-.94 0-1.83.56-2.23 1.2v3.35c.39.64 1.29 1.23 2.23 1.23 1.52.01 2.37-1.25 2.37-2.89zM69.53 44.41c0-1.98 1.28-3.54 3.25-3.54 2 0 3.26 1.57 3.26 3.54s-1.26 3.56-3.26 3.56c-1.98 0-3.25-1.58-3.25-3.56zm5.73 0c0-1.5-.88-2.89-2.48-2.89-1.57 0-2.46 1.39-2.46 2.89 0 1.51.9 2.9 2.46 2.9 1.59 0 2.48-1.39 2.48-2.9zM84.06 47.8l-1.89-5.79-1.91 5.79h-.7l-2.2-6.77h.78l1.79 5.74 1.91-5.74h.63l1.91 5.74 1.79-5.74h.78l-2.2 6.77h-.69zM88.29 44.41c0-1.96 1.39-3.54 3.26-3.54 2.06 0 3.19 1.64 3.19 3.59v.2h-5.66c.07 1.47 1.05 2.69 2.65 2.69.85 0 1.64-.32 2.21-.94l.38.48c-.67.7-1.53 1.09-2.65 1.09-1.97-.01-3.38-1.48-3.38-3.57zm3.25-2.91c-1.6 0-2.4 1.4-2.45 2.58H94c-.01-1.15-.77-2.58-2.46-2.58zM96.97 47.8v-6.77h.73v1.16c.58-.76 1.34-1.3 2.28-1.3v.8c-.13-.03-.22-.03-.36-.03-.69 0-1.61.62-1.92 1.2v4.93h-.73zM101.36 44.41c0-1.96 1.39-3.54 3.26-3.54 2.06 0 3.19 1.64 3.19 3.59v.2h-5.66c.07 1.47 1.05 2.69 2.65 2.69.85 0 1.64-.32 2.21-.94l.38.48c-.67.7-1.53 1.09-2.65 1.09-1.96-.01-3.38-1.48-3.38-3.57zm3.25-2.91c-1.6 0-2.39 1.4-2.45 2.58h4.92c-.02-1.15-.77-2.58-2.47-2.58zM115.03 47.8v-1.08c-.48.7-1.34 1.25-2.35 1.25-1.79 0-3.03-1.37-3.03-3.54 0-2.14 1.23-3.56 3.03-3.56.97 0 1.81.49 2.35 1.26v-3.67h.74v9.34h-.74zm0-1.7v-3.35c-.39-.66-1.27-1.23-2.23-1.23-1.5 0-2.37 1.26-2.37 2.9s.87 2.89 2.37 2.89c.95 0 1.84-.56 2.23-1.21zM122.36 47.8v-9.34h.73v3.67c.55-.77 1.4-1.26 2.35-1.26 1.81 0 3.03 1.41 3.03 3.56 0 2.17-1.23 3.54-3.03 3.54-1.01 0-1.88-.55-2.35-1.25v1.08h-.73zm2.96-.49c1.51 0 2.37-1.25 2.37-2.89 0-1.64-.85-2.9-2.37-2.9-.94 0-1.83.59-2.23 1.23v3.35c.39.65 1.29 1.21 2.23 1.21zM130.38 49.77c.15.07.42.11.59.11.45 0 .76-.18 1.02-.83l.53-1.2-2.86-6.82h.81l2.47 5.91 2.44-5.91h.83l-3.5 8.25c-.37.85-.94 1.26-1.74 1.26-.22 0-.53-.04-.71-.1l.12-.67z"/></g><g><path fill="#3E8EDE" d="M68.38 79.02h-1.67L63.27 68.3h-.06l-3.45 10.72h-1.64L52.18 63.1h3.19l3.53 10.34h.06l3.3-10.34h1.95l3.3 10.34h.06l3.51-10.34h3.19l-5.89 15.92zM77.47 72.36c.75 3.07 3.22 4.34 5.23 4.34 2.21 0 3.82-1.29 4.54-2.67h2.99c-1.52 4.11-5.17 5.4-7.64 5.4-4.51 0-8.1-3.88-8.1-8.39 0-4.77 3.68-8.36 8.16-8.36 4.31 0 8.07 3.51 8.1 8.16 0 .52-.06 1.32-.09 1.52H77.47zm10.29-2.3c-.14-2.33-2.27-4.65-5.14-4.65-2.87 0-5 2.33-5.14 4.65h10.28z"/><path fill="#3FAE2A" d="M93.01 63.1h2.73v2.44h.06c1.44-2.07 3.62-2.87 5.66-2.87 5.4 0 8.25 4.34 8.25 8.59 0 4.02-3.02 8.16-8.05 8.16-3.33 0-5-1.7-5.6-2.7H96v7.61h-2.99V63.1zm8.25 2.3c-3.13 0-5.32 2.7-5.32 5.63 0 3.22 2.38 5.66 5.4 5.66 2.82 0 5.37-2.24 5.37-5.6.01-2.84-2.2-5.69-5.45-5.69zM125.08 79.02v-2.47h-.06c-1.15 1.95-3.25 2.87-5.4 2.87-5.37 0-8.45-4.11-8.45-8.3 0-3.88 2.73-8.45 8.45-8.45 2.21 0 4.25.92 5.4 2.67h.06V63.1h2.99v15.92h-2.99zm-5.46-13.62c-3.68 0-5.46 3.19-5.46 5.69 0 2.87 2.27 5.6 5.43 5.6 3.13 0 5.55-2.56 5.55-5.6 0-3.39-2.44-5.69-5.52-5.69zM136.69 84.34h-3.1l2.33-5.63-6.35-15.6h3.22l4.68 12.36 4.8-12.36h3.22l-8.8 21.23z"/></g><path fill="#87B6DB" d="M197 3v104H3V3h194m3-3H0v110h200V0z"/></svg>