<svg xmlns="http://www.w3.org/2000/svg" viewBox="0 0 40 26"><path fill="#D10429" d="M8.44 1h9.48c1.32 0 2.15 1.09 1.84 2.43l-4.42 19.14C15.03 23.91 13.7 25 12.38 25H2.9c-1.32 0-2.15-1.09-1.84-2.43L5.48 3.43C5.79 2.09 7.11 1 8.44 1z"/><path fill="#022E64" d="M17.09 1H28c1.32 0 .72 1.09.41 2.43L24 22.57c-.31 1.34-.22 2.43-1.54 2.43H11.55c-1.33 0-2.15-1.09-1.83-2.43l4.42-19.14C14.45 2.09 15.77 1 17.09 1z"/><path fill="#076F74" d="M27.62 1h9.48c1.32 0 2.15 1.09 1.84 2.43l-4.42 19.14c-.31 1.34-1.64 2.43-2.96 2.43h-9.48c-1.33 0-2.15-1.09-1.84-2.43l4.42-19.14C24.97 2.09 26.29 1 27.62 1z"/><path fill="#FEFEFE" d="M29.05 16.66h1.29l-.19.61h-1.31l-.19.66h1.14l-1.04 1.38-.52.07.1-.33h-.31l1.16-3.86-.01-.01h.39l.1-.32.01.37 1.41.47.22-.74-.44-.11-.01-.45h-1.2l-2.34.39.12-.4h-1.12L24.9 19.1h-.23l-.22.74h2.23l-.08.24h1.1l.08-.24h.27l-.08.26 1.7-.46.59-.82.34 1.12.99.13.25-.81-.43-.04-.17-1.01h-.53l.23-.28h1.3l.2-.66h-1.21l.19-.61h1.21l.22-.74h-3.58l-.22.74zm-2.11 2.39h-.9l.26-.87h.89l-.25.87zm.5-1.67l-.99.31.31-1.02h.89l-.21.71zm-.01-1.42l-.52.2.3-.99.01.01h.89l-.21.72-.47.06zM23.33 14.39l-1.32.54.15-.54h-1.05l-1.58 5.37.19.25 1.74.08.25-.85-.88-.01.5-1.82 2.84-.41.87-2.62-1.71.01zm-.08 2.33l-1.73.01.1-.35h1.74l-.11.34zm.34-1.1l-1.87.42.25-.84h1.74l-.12.42zM18.33 14.38l-.49.81-.44.04-.22.73 3.19-.41.22-.75h-1.23l.21-.42h-1.24M18.17 19.23l.31-1.01h1.23l.23-.75H18.7l.18-.62h1.21l.22-.73h-3.03.02l-.22.73h.69l-.19.62h-.69l-.23.77h.69l-.32 1.66 1.93.2.25-.83-1.04-.04M17.68 12.97c.54 0 1.1-.15 1.52-.6.32-.36.47-.9.52-1.13h-.01c.17-.74.03-1.09-.12-1.29-.25-.32-.69-.42-1.14-.42-.28 0-.92.03-1.43.5-.37.34-.54.81-.63 1.25-.1.45-.22 1.27.52 1.57.23.1.56.12.77.12zm-.05-1.67c.12-.56.28-1.03.65-1.03.3 0 .32.35.19.91-.02.13-.13.59-.28.79-.1.15-.22.24-.36.24-.04 0-.28 0-.28-.35.01-.18.04-.36.08-.56zM10.91 7.15c-.98.01-1.26 0-1.36-.02-.03.17-.7 3.24-.7 3.24-.14.62-.25 1.06-.59 1.35-.2.17-.43.24-.7.24-.43 0-.68-.22-.72-.63l-.01-.14s.13-.83.13-.84c0 0 .69-2.8.81-3.17.01-.02.01-.03.01-.04-1.34.01-1.58 0-1.6-.02-.01.03-.04.2-.04.2l-.7 3.15-.06.26-.12.88c0 .26.05.47.15.65.32.57 1.24.65 1.76.65.67 0 1.3-.15 1.72-.4.74-.44.93-1.13 1.1-1.73l.08-.31s.71-2.9.83-3.28c0-.02 0-.03.01-.04zM24.15 17.53h.01v-.02"/><path fill="#FEFEFE" d="M23.28 17.86l-.07.11-.43.02.01-.42h-1.02l.08 2.38 1.53.1.23-.78-.82-.01-.05-.69 1.16-.23.28-.81h-.8l-.1.33M16.04 10.19c-.3.06-.49.09-.68.12-.19.03-.37.06-.65.1l-.02.02-.02.01c-.03.22-.05.4-.09.62-.03.23-.09.49-.17.86-.07.29-.1.38-.14.48-.04.1-.08.19-.15.47l.01.03.01.02c.27-.01.44-.02.62-.02.18-.01.37 0 .65 0l.01.01.03-.02.03-.02c.04-.25.05-.31.08-.44.02-.13.07-.31.17-.8.05-.23.1-.46.16-.69.06-.23.11-.46.17-.69l-.01-.03-.01-.03zM13.31 9.49c-.17 0-.48.04-.76.18-.1.05-.2.11-.3.17l.09-.33-.05-.06c-.61.13-.74.15-1.29.22l-.05.03c-.06.54-.12.94-.36 1.99-.09.39-.18.78-.28 1.17l.03.05c.57-.03.74-.03 1.23-.02l.04-.04c.06-.32.07-.4.21-1.05.07-.31.2-.99.27-1.23.12-.06.24-.11.36-.11.28 0 .25.24.23.34-.01.16-.11.7-.21 1.15l-.07.29c-.04.22-.1.42-.14.64l.02.04c.56-.03.73-.03 1.21-.02l-.01-.01.06-.04c.08-.5.11-.63.26-1.37l.08-.33c.15-.66.22-1 .11-1.27-.13-.31-.42-.39-.68-.39zM28.31 11.37c-.1.45-.22 1.27.52 1.55.23.1.45.13.66.12.21-.01.41-.11.59-.26-.02.06-.03.12-.05.17l.03.05c.53-.03.7-.03 1.27-.02v.01l.06-.04c.08-.5.16-.99.38-1.94.11-.45.21-.9.32-1.36l-.01-.05c-.6.11-.76.13-1.33.22l-.04.03c0 .03-.01.06-.01.09-.09-.13-.21-.24-.39-.31-.25-.1-.85.03-1.36.5-.37.33-.55.79-.64 1.24zm1.24.03c.12-.55.28-1.02.65-1.02.2 0 .33.16.34.43-.03.14-.06.3-.1.48-.05.22-.11.44-.16.66-.02.04-.04.08-.06.11-.1.14-.33.23-.46.23-.04 0-.27 0-.28-.35 0-.17.03-.35.07-.54zM36.1 9.51l-.05-.06c-.59.12-.7.14-1.23.22l-.04.04c0 .01-.01.01-.01.03-.4.94-.39.74-.72 1.48 0-.03 0-.06-.01-.09l-.08-1.6-.05-.06c-.62.12-.63.14-1.2.22l-.04.04c-.01.02-.01.04-.01.06l.01.01c.07.37.06.29.12.86.03.29.08.57.11.85.06.47.09.7.16 1.42-.39.64-.48.88-.85 1.45l.01.01h-.02l-.28.44c-.03.04-.06.07-.1.08-.04.02-.1.03-.17.03h-.14l-.21.72.74.01c.43 0 .7-.21.85-.48l.45-.79h.01l.09-.1c.3-.67 2.67-4.78 2.66-4.79zM25.19 12.92c.03-.17.24-1.2.25-1.2 0 0 .18-.75.19-.78 0 0 .06-.08.11-.11h.08c.78 0 1.65 0 2.34-.51.47-.35.79-.87.93-1.5.03-.15.06-.33.06-.52 0-.24-.05-.48-.19-.67-.35-.49-1.05-.5-1.85-.51l-.4.01c-1.03.01-1.45.01-1.61-.01-.01.08-.04.21-.04.21l-.37 1.73s-.88 3.67-.92 3.85c.9-.01 1.27-.01 1.42.01zm.69-3.06s.39-1.73.39-1.72l.01-.09.01-.07.16.02s.81.07.83.07c.32.13.45.45.36.87-.08.38-.33.71-.65.86-.26.13-.58.15-.91.15h-.21l.01-.09zM16.04 9.28c-.27-.16-.74-.11-1.06.11-.32.22-.35.52-.08.69.26.15.74.11 1.05-.11.31-.22.36-.53.09-.69zM21.09 12.89l.04-.04c.06-.32.08-.4.21-1.05.07-.31.21-.99.27-1.23.12-.06.24-.11.36-.11.27 0 .24.24.23.34-.01.16-.11.7-.21 1.15l-.06.29c-.05.22-.1.42-.15.64l.02.04c.56-.03.72-.03 1.2-.02l-.01-.01.06-.04c.08-.5.1-.63.26-1.37l.08-.33c.15-.66.23-1 .12-1.27-.12-.31-.41-.38-.67-.38-.17 0-.48.04-.76.18-.1.05-.2.11-.3.17l.08-.33-.06-.06c-.59.12-.73.14-1.28.22l-.05.02c-.07.54-.12.94-.36 1.99-.09.39-.18.78-.28 1.17l.03.05c.57-.03.74-.03 1.23-.02z"/></svg>