<svg xmlns="http://www.w3.org/2000/svg" viewBox="0 0 24 26"><path fill="#FFF" d="M.12 0H24v26H.12z"/><path fill="#1C3378" d="M.06 0h23.88v26H.06z"/><path fill="#FFF" d="M1 1v16h22V1H1zm12.28 13.22h-2.92L8.16 5.7c-.13-.52-.25-.71-.65-.93-.67-.36-1.76-.7-2.72-.91l.06-.31h4.7c.6 0 1.14.4 1.27 1.09l1.16 6.17 2.87-7.26h2.9l-4.47 10.67z"/><g fill="#FFF"><path d="M7.42 18.63c-.59 0-1.02.04-1.33.1v4.89h.86v-1.87c.11.02.26.03.42.03.61 0 1.16-.17 1.5-.53.27-.27.41-.66.41-1.13 0-.47-.18-.85-.47-1.1-.3-.25-.76-.39-1.39-.39zm-.05 2.45c-.18 0-.32-.01-.42-.04v-1.68c.09-.02.26-.05.5-.05.6 0 .97.29.97.85 0 .58-.4.92-1.05.92zM11.41 18.66l-1.52 4.96h.89l.41-1.41h1.51l.43 1.41h.93l-1.55-4.96h-1.1zm-.08 2.87l.37-1.22c.08-.29.16-.64.22-.93h.01c.07.29.15.63.24.93l.37 1.22h-1.21zM17.35 18.66l-.57 1.27c-.16.36-.3.67-.42.99h-.01c-.13-.34-.25-.62-.41-.99l-.57-1.27h-.99l1.5 2.89v2.07h.87v-2.09l1.58-2.87h-.98z"/></g></svg>